<svg width="13" height="25" viewBox="0 0 13 25" fill="none" xmlns="http://www.w3.org/2000/svg">
<path d="M11.6947 9.1266C12.2284 9.07428 12.6221 8.61212 12.6221 8.08021V6.61526C12.6221 3.23193 9.90989 0.432841 6.57651 0.371801C4.91419 0.336922 3.33936 0.964756 2.14949 2.13322C0.959625 3.30169 0.303444 4.85384 0.303444 6.51062V13.0593C0.312193 13.3034 0.513424 13.4953 0.749648 13.4953H1.79953H10.5661V18.3436C10.5661 20.602 8.76377 22.4768 6.55026 22.5291C5.43913 22.5553 4.3805 22.1367 3.58433 21.3606C2.78817 20.5846 2.34197 19.5469 2.34197 18.4308V16.8612C2.34197 16.3293 1.94826 15.8671 1.41457 15.8148C0.80214 15.7537 0.28595 16.2333 0.28595 16.835V18.3348C0.28595 21.7182 2.99815 24.5173 6.33153 24.5783C6.36653 24.5783 6.41028 24.5783 6.44527 24.5783C8.06384 24.5783 9.60367 23.9505 10.7585 22.8169C11.9484 21.6484 12.6046 20.0963 12.6046 18.4395V11.8821C12.5958 11.6379 12.3946 11.4461 12.1584 11.4461L2.33322 11.4548V6.60654C2.33322 4.34808 4.13553 2.4733 6.34903 2.42098C7.46016 2.39482 8.51879 2.81338 9.31496 3.58945C10.1111 4.36552 10.5573 5.40319 10.5573 6.51934V8.11509C10.5748 8.70804 11.0823 9.17892 11.6947 9.1266Z" fill="white"/>
</svg>
