<svg width="8" height="16" viewBox="0 0 8 16" fill="none" xmlns="http://www.w3.org/2000/svg">
<path d="M0.939618 3.66213C0.932989 3.23334 1.01162 2.80737 1.17092 2.40904C1.33022 2.01071 1.56702 1.64798 1.8675 1.342C2.16798 1.03601 2.52614 0.792894 2.92111 0.626805C3.31608 0.460717 3.73995 0.374984 4.16803 0.3746C4.59611 0.374216 5.01983 0.45919 5.41451 0.62457C5.80918 0.78995 6.16691 1.03243 6.46684 1.33787C6.76678 1.64332 7.00292 2.00562 7.16151 2.40367C7.3201 2.80172 7.39797 3.22755 7.39058 3.65634L7.38248 12.7154C7.38171 13.5724 7.04115 14.3946 6.43572 15.0011C5.83028 15.6076 5.00956 15.9488 4.15411 15.9496C3.29866 15.9503 2.47855 15.6106 1.8742 15.0052C1.26985 14.3998 0.930755 13.5782 0.931521 12.7212L0.939618 3.66213V3.66213ZM4.16727 1.22857C3.52379 1.22923 2.90647 1.4859 2.45106 1.94213C1.99565 2.39835 1.73944 3.01678 1.73878 3.66141L1.73453 7.79065L6.58716 7.7863L6.59141 3.65706C6.59176 3.33784 6.52933 3.02179 6.40768 2.72697C6.28603 2.43215 6.10755 2.16433 5.88244 1.93881C5.65732 1.7133 5.38998 1.5345 5.09569 1.41263C4.8014 1.29076 4.48591 1.22822 4.16727 1.22857V1.22857ZM5.85391 11.1841C5.74794 11.1842 5.64627 11.2265 5.57127 11.3016C5.49627 11.3768 5.45408 11.4786 5.45397 11.5848L5.45245 13.2833C5.45239 13.3795 5.43343 13.4747 5.39663 13.5636C5.35984 13.6525 5.30594 13.7332 5.23802 13.8013C5.17009 13.8693 5.08947 13.9233 5.00076 13.9602C4.91205 13.997 4.81699 14.016 4.72102 14.0161C4.6416 14.0153 4.56371 14.0383 4.49737 14.0822C4.43103 14.126 4.37927 14.1888 4.34875 14.2623C4.31824 14.3358 4.31036 14.4167 4.32613 14.4947C4.3419 14.5727 4.3806 14.6441 4.43725 14.6997C4.4748 14.7373 4.51948 14.7671 4.56866 14.7871C4.61785 14.8072 4.67055 14.8173 4.72369 14.8167C5.12888 14.8154 5.51732 14.6532 5.80377 14.3656C6.09022 14.078 6.25128 13.6885 6.25161 13.2826L6.25313 11.584C6.25321 11.4779 6.2112 11.3761 6.13633 11.3011C6.06147 11.2261 5.95988 11.184 5.85391 11.1841V11.1841Z" fill="url(#paint0_linear_3_554)"/>
<defs>
<linearGradient id="paint0_linear_3_554" x1="-1.15581" y1="6.12117" x2="8.99183" y2="12.2087" gradientUnits="userSpaceOnUse">
<stop stop-color="#3135C6"/>
<stop offset="1" stop-color="#00AAFF"/>
</linearGradient>
</defs>
</svg>
