<svg width="20" height="20" viewBox="0 0 20 20" fill="none" xmlns="http://www.w3.org/2000/svg">
<path d="M7.49902 19.9058C8.32745 19.9058 8.99902 19.2342 8.99902 18.4058C8.99902 17.5773 8.32745 16.9058 7.49902 16.9058C6.6706 16.9058 5.99902 17.5773 5.99902 18.4058C5.99902 19.2342 6.6706 19.9058 7.49902 19.9058Z" fill="#545976"/>
<path d="M16.499 19.9058C17.3275 19.9058 17.999 19.2342 17.999 18.4058C17.999 17.5773 17.3275 16.9058 16.499 16.9058C15.6706 16.9058 14.999 17.5773 14.999 18.4058C14.999 19.2342 15.6706 19.9058 16.499 19.9058Z" fill="#545976"/>
<path d="M19.8421 2.69487C19.7814 2.62142 19.7047 2.56208 19.6178 2.52112C19.5308 2.48016 19.4357 2.45859 19.3392 2.45797H5.74001L6.16458 3.7385H18.4835L16.7395 11.4217H6.94186L3.95683 2.15704C3.92455 2.05873 3.86848 1.96954 3.79341 1.89707C3.71834 1.8246 3.62651 1.77101 3.52574 1.74087L0.847702 0.934128C0.765356 0.909324 0.678833 0.900661 0.593072 0.908635C0.507311 0.916608 0.423992 0.941062 0.347872 0.980599C0.194141 1.06045 0.0790663 1.19689 0.0279623 1.35991C-0.0231416 1.52292 -0.00608829 1.69916 0.0753708 1.84986C0.15683 2.00055 0.296022 2.11335 0.462326 2.16344L2.80724 2.86774L5.80533 12.1516L4.73412 13.0096L4.6492 13.0928C4.38423 13.3921 4.23404 13.7727 4.2245 14.1689C4.21497 14.5651 4.34668 14.9521 4.59695 15.2633C4.77498 15.4756 5.00121 15.644 5.25753 15.7552C5.51386 15.8664 5.79318 15.9172 6.07313 15.9036H16.9747C17.1479 15.9036 17.3141 15.8362 17.4366 15.7161C17.5591 15.596 17.6279 15.4332 17.6279 15.2633C17.6279 15.0935 17.5591 14.9307 17.4366 14.8106C17.3141 14.6905 17.1479 14.6231 16.9747 14.6231H5.96863C5.89341 14.6206 5.82013 14.5991 5.75586 14.5607C5.69159 14.5223 5.6385 14.4683 5.60173 14.4039C5.56496 14.3396 5.54574 14.267 5.54594 14.1932C5.54613 14.1195 5.56573 14.047 5.60284 13.9828L7.17701 12.7023H17.2621C17.4131 12.7059 17.5607 12.6581 17.6798 12.567C17.7989 12.476 17.8821 12.3473 17.9153 12.2029L19.9858 3.23909C20.0057 3.14364 20.0031 3.04501 19.9782 2.95069C19.9533 2.85638 19.9068 2.76889 19.8421 2.69487Z" fill="#545976"/>
</svg>
