<svg width="14" height="21" viewBox="0 0 14 21" fill="none" xmlns="http://www.w3.org/2000/svg">
<path d="M0.25 0.25L3.4495 8.02C1.5325 9.211 0.25 11.3305 0.25 13.75C0.25 17.4715 3.27775 20.5 7 20.5C10.7222 20.5 13.75 17.4715 13.75 13.75C13.75 11.3313 12.4675 9.21175 10.5505 8.02L13.75 0.25H12.1285L9.1945 7.3735C8.69477 7.19946 8.17614 7.08541 7.6495 7.03375L10.4403 0.25H8.81875L6.00475 7.0825C5.59663 7.14225 5.19491 7.23967 4.80475 7.3735L1.8715 0.25H0.25ZM3.559 0.25L5.46475 4.8805L6.27625 2.91025L5.18125 0.25H3.559ZM7 8.5C9.89425 8.5 12.25 10.855 12.25 13.75C12.25 16.645 9.89425 19 7 19C4.10575 19 1.75 16.645 1.75 13.75C1.75 10.855 4.10575 8.5 7 8.5ZM7 10.8715L6.124 12.8365L4 13.069L5.59 14.497L5.14225 16.6045L7 15.5335L8.85775 16.606L8.41075 14.4985L10 13.0682L7.876 12.8358L7 10.8707V10.8715Z" fill="url(#paint0_linear_3_586)"/>
<defs>
<linearGradient id="paint0_linear_3_586" x1="4.57202" y1="2.19397" x2="10.871" y2="19.0123" gradientUnits="userSpaceOnUse">
<stop stop-color="#3135C6"/>
<stop offset="1" stop-color="#00AAFF"/>
</linearGradient>
</defs>
</svg>
