<svg width="16" height="16" viewBox="0 0 16 16" fill="none" xmlns="http://www.w3.org/2000/svg">
<path d="M7.38275 1.75523C7.59608 1.19259 8.40338 1.19259 8.61737 1.75523L9.9973 5.57773C10.0454 5.70225 10.1302 5.80924 10.2404 5.88458C10.3506 5.95992 10.4811 6.00006 10.6146 5.99971H14.0058C14.6324 5.99971 14.9058 6.77968 14.4131 7.16166L11.9999 9.3329C11.8918 9.416 11.8128 9.53121 11.7742 9.66199C11.7357 9.79277 11.7395 9.93241 11.7852 10.0609L12.6665 13.796C12.8812 14.396 12.1865 14.9113 11.6612 14.542L8.38338 12.4621C8.27112 12.3832 8.13726 12.3409 8.00006 12.3409C7.86286 12.3409 7.729 12.3832 7.61674 12.4621L4.33889 14.542C3.81425 14.9113 3.11894 14.3953 3.3336 13.796L4.2149 10.0609C4.26061 9.93241 4.26446 9.79277 4.2259 9.66199C4.18734 9.53121 4.10834 9.416 4.00024 9.3329L1.58701 7.16166C1.0937 6.77968 1.36835 5.99971 1.99366 5.99971H5.38484C5.51836 6.00016 5.64888 5.96005 5.7591 5.8847C5.86933 5.80935 5.95409 5.7023 6.00215 5.57773L7.38209 1.75523H7.38275Z" stroke="white" stroke-linecap="round" stroke-linejoin="round"/>
</svg>
